<?xml version="1.0" encoding="UTF-8"?>
<svg version="1.1" xmlns="http://www.w3.org/2000/svg" width="512" height="512">
<path d="M0 0 C1.01790619 0.00215515 2.03581238 0.0043103 3.08456421 0.00653076 C17.69363523 0.05620146 32.02575853 0.30709809 46.375 3.3125 C47.34985352 3.51117676 48.32470703 3.70985352 49.32910156 3.91455078 C97.7109774 14.03517194 141.69928269 35.9516877 177.375 70.3125 C178.3640332 71.26068604 178.3640332 71.26068604 179.37304688 72.22802734 C188.86130305 81.37247479 197.6012044 90.66984009 205.375 101.3125 C206.23306152 102.46355017 207.09113451 103.61459177 207.94921875 104.765625 C213.98736829 112.95680614 219.34595521 121.47054105 224.375 130.3125 C224.73948242 130.94430176 225.10396484 131.57610352 225.47949219 132.22705078 C247.08534998 169.97532572 256.85198095 212.74189997 256.6875 255.9375 C256.68534485 256.95540619 256.6831897 257.97331238 256.68096924 259.02206421 C256.63129854 273.63113523 256.38040191 287.96325853 253.375 302.3125 C253.07698486 303.77478027 253.07698486 303.77478027 252.77294922 305.26660156 C242.65232806 353.6484774 220.7358123 397.63678269 186.375 433.3125 C185.74287598 433.97185547 185.11075195 434.63121094 184.45947266 435.31054688 C175.31502521 444.79880305 166.01765991 453.5387044 155.375 461.3125 C154.22394983 462.17056152 153.07290823 463.02863451 151.921875 463.88671875 C143.73224019 469.92427396 135.22961724 475.30707302 126.375 480.3125 C125.66778809 480.7146875 124.96057617 481.116875 124.23193359 481.53125 C101.09654164 494.5566741 75.92537591 503.30551461 49.9375 508.625 C49.21860596 508.77235596 48.49971191 508.91971191 47.7590332 509.0715332 C33.08339502 511.86090125 18.55831162 512.66142619 3.64770508 512.62817383 C0.70811513 512.6250221 -2.2304558 512.64854926 -5.16992188 512.67382812 C-18.54306192 512.71848737 -31.43916711 511.51301542 -44.625 509.3125 C-46.33055054 509.03031616 -46.33055054 509.03031616 -48.07055664 508.74243164 C-91.33802759 500.97044532 -132.38793216 480.98345309 -165.625 452.3125 C-166.37007813 451.67828125 -167.11515625 451.0440625 -167.8828125 450.390625 C-181.38779833 438.57948485 -194.05918743 425.82889772 -204.625 411.3125 C-205.48149066 410.16255169 -206.33826433 409.01281411 -207.1953125 407.86328125 C-213.23534209 399.67315742 -218.61867614 391.16870382 -223.625 382.3125 C-224.0271875 381.60528809 -224.429375 380.89807617 -224.84375 380.16943359 C-237.8691741 357.03404164 -246.61801461 331.86287591 -251.9375 305.875 C-252.08485596 305.15610596 -252.23221191 304.43721191 -252.3840332 303.6965332 C-255.35789088 288.05024391 -255.99800362 272.57681954 -255.9375 256.6875 C-255.93534485 255.66959381 -255.9331897 254.65168762 -255.93096924 253.60293579 C-255.88129854 238.99386477 -255.63040191 224.66174147 -252.625 210.3125 C-252.42632324 209.33764648 -252.22764648 208.36279297 -252.02294922 207.35839844 C-241.90232806 158.9765226 -219.9858123 114.98821731 -185.625 79.3125 C-184.99287598 78.65314453 -184.36075195 77.99378906 -183.70947266 77.31445312 C-174.56502521 67.82619695 -165.26765991 59.0862956 -154.625 51.3125 C-153.47394983 50.45443848 -152.32290823 49.59636549 -151.171875 48.73828125 C-142.98224019 42.70072604 -134.47961724 37.31792698 -125.625 32.3125 C-124.91778809 31.9103125 -124.21057617 31.508125 -123.48193359 31.09375 C-100.34654164 18.0683259 -75.17537591 9.31948539 -49.1875 4 C-48.46860596 3.85264404 -47.74971191 3.70528809 -47.0090332 3.5534668 C-31.36274391 0.57960912 -15.88931954 -0.06050362 0 0 Z " fill="#B6ABFA" transform="translate(255.625,-0.3125)"/>
<path d="M0 0 C0.99555908 0.00572021 1.99111816 0.01144043 3.0168457 0.01733398 C19.4494922 0.40905852 34.78852857 6.09703602 46.94140625 17.44140625 C60.9875302 32.39556245 67.4152108 49.6317367 67.23828125 70.01171875 C67.23902901 71.71313774 67.23902901 71.71313774 67.23979187 73.44892883 C67.23747094 75.82445038 67.22786122 78.19997533 67.21118164 80.57543945 C67.18748892 84.1891905 67.19064917 87.80220597 67.19726562 91.41601562 C67.19169044 93.73958768 67.18458156 96.06315667 67.17578125 98.38671875 C67.17669266 99.45363449 67.17760406 100.52055023 67.17854309 101.61979675 C66.99778936 120.93122766 59.73288299 138.85299784 45.875 152.5 C31.32647636 165.56204405 13.35112485 169.45779923 -5.609375 168.8828125 C-21.83125967 168.00490928 -35.59164875 160.7502036 -46.72021484 149.08886719 C-62.71258784 131.00086519 -64.4990661 109.5507462 -64.49560547 86.46313477 C-64.49997691 83.2047082 -64.53639282 79.9476412 -64.57421875 76.68945312 C-64.70287848 53.07094579 -59.69638207 34.00327278 -43.109375 16.35546875 C-31.54491762 5.15507762 -15.89081213 -0.10780371 0 0 Z " fill="#B8AAFA" transform="translate(351.125,171.5)"/>
<path d="M0 0 C9.57 0 19.14 0 29 0 C35.44190934 15.61942402 41.68914087 31.2841331 47.72109985 47.06451416 C54.9161218 65.87935349 62.29273913 84.62212451 69.67504883 103.36401367 C70.13794815 104.5396991 70.60084747 105.71538452 71.07777405 106.92669678 C71.94750466 109.13524993 72.81785529 111.34355906 73.68894958 113.55157471 C74.79748633 116.36584478 75.89957804 119.18254942 77 122 C77.3134436 122.78996368 77.62688721 123.57992737 77.9498291 124.39382935 C79.12407142 127.40900629 80 129.73360698 80 133 C80.66 133 81.32 133 82 133 C82.10908691 132.32622314 82.21817383 131.65244629 82.33056641 130.95825195 C83.13768639 127.39155871 84.38831964 124.06680116 85.7109375 120.66796875 C86.13023277 119.5771122 86.13023277 119.5771122 86.55799866 118.46421814 C87.49268619 116.03695668 88.43364347 113.61218214 89.375 111.1875 C90.04445996 109.45495699 90.71380958 107.72237135 91.38305664 105.98974609 C97.44723591 90.31913849 103.63683809 74.69812842 109.83666992 59.08081055 C115.33118005 45.23765269 120.77971685 31.37726805 126.1875 17.5 C126.53787323 16.60089905 126.88824646 15.7017981 127.24923706 14.77545166 C129.16782813 9.8509483 131.08419884 4.92559084 133 0 C142.24 0 151.48 0 161 0 C161 54.12 161 108.24 161 164 C153.74 164 146.48 164 139 164 C138.67 124.07 138.34 84.14 138 43 C120.5134502 86.29435702 120.5134502 86.29435702 103.05029297 129.59814453 C101.62790989 133.12818452 100.20465438 136.65787172 98.78125 140.1875 C98.16413147 141.72011475 98.16413147 141.72011475 97.5345459 143.28369141 C94.7399845 150.21055374 91.88263206 157.10930722 89 164 C83.72 164 78.44 164 73 164 C72.31901245 162.29360352 72.31901245 162.29360352 71.62426758 160.55273438 C60.56013567 132.83522375 49.44702239 105.13761031 38.30016708 77.45327759 C37.31018872 74.99425898 36.32053471 72.53511006 35.33096313 70.07592773 C33.76185272 66.17671281 32.19185328 62.27785704 30.62113953 58.37928772 C30.03626734 56.92728153 29.45166906 55.47516498 28.86735535 54.02293396 C28.0651127 52.02929213 27.26182501 50.03607464 26.45825195 48.04296875 C25.77929619 46.35723755 25.77929619 46.35723755 25.08662415 44.63745117 C24.44090679 43.07016776 23.75806704 41.51613408 23 40 C22.67 80.92 22.34 121.84 22 164 C14.74 164 7.48 164 0 164 C0 109.88 0 55.76 0 0 Z " fill="#FEFEFE" transform="translate(94,174)"/>
<path d="M0 0 C0.99555908 0.00572021 1.99111816 0.01144043 3.0168457 0.01733398 C19.4494922 0.40905852 34.78852857 6.09703602 46.94140625 17.44140625 C60.9875302 32.39556245 67.4152108 49.6317367 67.23828125 70.01171875 C67.23902901 71.71313774 67.23902901 71.71313774 67.23979187 73.44892883 C67.23747094 75.82445038 67.22786122 78.19997533 67.21118164 80.57543945 C67.18748892 84.1891905 67.19064917 87.80220597 67.19726562 91.41601562 C67.19169044 93.73958768 67.18458156 96.06315667 67.17578125 98.38671875 C67.17669266 99.45363449 67.17760406 100.52055023 67.17854309 101.61979675 C66.99778936 120.93122766 59.73288299 138.85299784 45.875 152.5 C31.32647636 165.56204405 13.35112485 169.45779923 -5.609375 168.8828125 C-21.83125967 168.00490928 -35.59164875 160.7502036 -46.72021484 149.08886719 C-62.71258784 131.00086519 -64.4990661 109.5507462 -64.49560547 86.46313477 C-64.49997691 83.2047082 -64.53639282 79.9476412 -64.57421875 76.68945312 C-64.70287848 53.07094579 -59.69638207 34.00327278 -43.109375 16.35546875 C-31.54491762 5.15507762 -15.89081213 -0.10780371 0 0 Z M-29.97265625 31.44921875 C-41.69972038 46.23551701 -42.62326648 62.09970101 -42.51611328 80.19897461 C-42.50005373 83.4267007 -42.51600957 86.65317168 -42.53515625 89.88085938 C-42.55368603 108.26647849 -40.73309501 126.20907587 -27.46484375 140.2578125 C-18.93652444 147.98963729 -9.23959181 150.95016937 2.140625 150.74609375 C12.06112156 150.09233718 20.17974905 147.90538031 27.875 141.5 C28.56207031 140.94699219 29.24914062 140.39398438 29.95703125 139.82421875 C38.90197508 131.83705093 44.2140761 119.77975804 45.06185913 107.87638855 C45.13743062 105.00032739 45.15234292 102.13093131 45.140625 99.25390625 C45.14253845 98.20275131 45.1444519 97.15159637 45.14642334 96.06858826 C45.14777728 93.85749063 45.14413645 91.64638484 45.13574219 89.43530273 C45.12504244 86.07582494 45.13565921 82.71688313 45.1484375 79.35742188 C45.14711556 77.1979155 45.14455244 75.03840946 45.140625 72.87890625 C45.14467346 71.88693741 45.14872192 70.89496857 45.15289307 69.87294006 C45.04891175 54.18396974 40.93092224 41.01639286 30.03125 29.5625 C23.41961717 23.27602944 15.06922735 18.9839067 5.875 18.5 C4.98167969 18.44972656 4.08835937 18.39945313 3.16796875 18.34765625 C-10.25665482 17.91682751 -20.58374941 21.54421978 -29.97265625 31.44921875 Z " fill="#FEFEFE" transform="translate(351.125,171.5)"/>
</svg>
